Coordinates
version=1
nRows=15
nColumns=38
inDegrees=yes

Units are S.I. units (second, meters, Newtons, ...)
Angles are in degrees.

endheader
time	pelvis_tilt	pelvis_list	pelvis_rotation	pelvis_tx	pelvis_ty	pelvis_tz	hip_flexion_r	hip_adduction_r	hip_rotation_r	knee_angle_r	ankle_angle_r	subtalar_angle_r	mtp_angle_r	hip_flexion_l	hip_adduction_l	hip_rotation_l	knee_angle_l	ankle_angle_l	subtalar_angle_l	mtp_angle_l	lumbar_extension	lumbar_bending	lumbar_rotation	arm_flex_r	arm_add_r	arm_rot_r	elbow_flex_r	pro_sup_r	wrist_flex_r	wrist_dev_r	arm_flex_l	arm_add_l	arm_rot_l	elbow_flex_l	pro_sup_l	wrist_flex_l	wrist_dev_l
      1.85000000	      3.14050500	      1.20501152	      3.02719958	      0.64501610	      0.91721536	     -0.26681276	     22.38634421	     -4.07720963	    -16.86484413	    -19.86102503	      3.22173344	     -4.19806497	      0.00000000	    -14.08543663	     -0.26947510	     -3.77744834	    -28.55466498	      9.24677420	      0.93181278	      0.00000000	    -13.16720853	      3.57068632	     -8.23592753	     -3.83466145	     -5.58118912	     45.69131261	     20.28336011	     44.05623701	      0.00000000	      0.00000000	     22.99211800	     -9.48442630	     41.68422731	     45.71587369	     44.05623701	      0.00000000	      0.00000000
      1.86000000	      3.36718863	      1.06453768	      2.99022310	      0.65780736	      0.91830062	     -0.26535454	     22.00372486	     -3.96358851	    -16.61854647	    -21.14195597	      2.58414246	     -3.97923194	      0.00000000	    -13.89383354	     -0.64531332	     -3.90934520	    -30.39298386	      7.06683384	      0.85452517	      0.00000000	    -13.28251457	      3.86606304	     -8.08378966	     -3.77511780	     -5.68623329	     45.67548738	     20.25250916	     44.05939966	      0.00000000	      0.00000000	     22.38715945	     -9.37462074	     41.75632059	     45.63430988	     44.05939966	      0.00000000	      0.00000000
      1.87000000	      3.39410297	      0.77843585	      2.76574876	      0.67049605	      0.91924407	     -0.26356607	     21.69973995	     -3.52578223	    -16.05021750	    -22.09325765	      2.39619317	     -3.96512591	      0.00000000	    -13.09614172	     -1.18729829	     -4.58646485	    -32.79956947	      4.24710147	      0.30929731	      0.00000000	    -13.17120914	      4.29155958	     -7.79595359	     -3.56646633	     -5.84367771	     45.63532759	     20.21869938	     44.07134750	      0.00000000	      0.00000000	     21.59387193	     -9.25318357	     41.69477110	     45.52134967	     44.07134750	      0.00000000	      0.00000000
      1.88000000	      3.66702427	      0.56435633	      2.58796995	      0.68309296	      0.92052947	     -0.26163705	     21.06685763	     -3.13462940	    -15.62619252	    -22.89494774	      2.84410971	     -4.12382948	      0.00000000	    -12.43322924	     -1.71261362	     -5.18558458	    -35.23887658	      1.12144381	      0.03004285	      0.00000000	    -13.36829332	      4.59340152	     -7.59195894	     -3.39838634	     -5.92230226	     45.61059947	     20.22086100	     44.07521669	      0.00000000	      0.00000000	     20.90403234	     -9.16417043	     41.75378027	     45.40477863	     44.07521669	      0.00000000	      0.00000000
      1.89000000	      3.56793145	      0.25287004	      2.26396249	      0.69539220	      0.92144114	     -0.25923778	     20.63311701	     -2.39564065	    -14.36519803	    -23.19099449	      2.87914948	     -5.26366785	      0.00000000	    -11.23977687	     -2.18380159	     -5.68697619	    -37.70153332	     -3.04003026	     -1.66383591	      0.00000000	    -13.15713941	      4.92003996	     -7.19618191	     -3.14627495	     -6.01253676	     45.53839737	     20.25694047	     44.10396755	      0.00000000	      0.00000000	     19.98916504	     -9.07429679	     41.37963334	     45.22533816	     44.10396755	      0.00000000	      0.00000000
      1.90000000	      3.72746819	      0.15907151	      1.65917924	      0.70829172	      0.92270789	     -0.25618524	     19.91498347	     -1.86627257	    -13.42538416	    -23.65488811	      3.35750342	     -5.84951931	      0.00000000	    -10.42974199	     -2.56086771	     -6.63941823	    -39.94771613	     -6.70113819	     -2.80066157	      0.00000000	    -13.19293644	      4.90425441	     -6.52326706	     -3.03772497	     -6.05073956	     45.50486805	     20.30640313	     44.12233737	      0.00000000	      0.00000000	     19.05796484	     -9.03130539	     41.24827785	     45.11346938	     44.12233737	      0.00000000	      0.00000000
      1.91000000	      3.51872597	     -0.17723534	      1.73233725	      0.71983834	      0.92332273	     -0.25410059	     19.56424023	     -1.33642125	    -13.12673440	    -24.02507429	      3.80140197	     -6.17861924	      0.00000000	     -8.69048240	     -3.39609314	     -6.92042108	    -42.96587024	     -9.39464048	     -3.84002261	      0.00000000	    -12.94376950	      5.28443578	     -6.42566049	     -2.75254154	     -6.11348428	     45.47860963	     20.39772211	     44.13242594	      0.00000000	      0.00000000	     18.29570727	     -9.01902763	     41.23467854	     44.91859867	     44.13242594	      0.00000000	      0.00000000
      1.92000000	      3.42880667	     -0.37205077	      1.92056507	      0.73114553	      0.92395057	     -0.25226137	     19.06899682	     -0.98225777	    -13.22489323	    -24.35981627	      4.53510592	     -6.66144966	      0.00000000	     -6.90129327	     -4.04348193	     -6.80107952	    -46.24771948	    -11.54059991	     -4.70154716	      0.00000000	    -12.85620223	      5.52689992	     -6.35985227	     -2.46819212	     -6.14916780	     45.46406512	     20.49457409	     44.13760127	      0.00000000	      0.00000000	     17.67809289	     -8.97042138	     41.27490589	     44.73043034	     44.13760127	      0.00000000	      0.00000000
      1.93000000	      3.17403957	     -0.63683256	      2.15594679	      0.74215767	      0.92436578	     -0.25051635	     18.68179872	     -0.58500115	    -12.99288890	    -24.56917911	      5.13981501	     -6.91069143	      0.00000000	     -4.68698831	     -4.50199589	     -6.05695308	    -49.79621224	    -13.47774712	     -5.60934794	      0.00000000	    -12.59472345	      5.83983638	     -6.33220422	     -2.14442194	     -6.24207195	     45.45329226	     20.62519949	     44.14379710	      0.00000000	      0.00000000	     17.00549257	     -8.91238506	     41.31161748	     44.45280827	     44.14379710	      0.00000000	      0.00000000
      1.94000000	      2.89016805	     -0.85301783	      2.36027858	      0.75285187	      0.92477080	     -0.24887203	     18.34099790	     -0.26186733	    -13.14327459	    -24.74860563	      5.68588033	     -7.26942977	      0.00000000	     -2.36368605	     -4.78232648	     -5.07207185	    -53.30022144	    -14.97482933	     -5.99597290	      0.00000000	    -12.33602560	      6.07637166	     -6.27944911	     -1.81037225	     -6.36382301	     45.46485245	     20.83437860	     44.15240708	      0.00000000	      0.00000000	     16.32171601	     -8.84432319	     41.32246011	     44.01999633	     44.15240708	      0.00000000	      0.00000000
      1.95000000	      2.95977199	     -0.97711642	      2.46597021	      0.76360472	      0.92557826	     -0.24710757	     17.59030545	      0.03160057	    -13.11231346	    -24.88783013	      6.53281819	     -7.39901621	      0.00000000	     -0.55191363	     -5.10186019	     -4.56280090	    -56.44018675	    -15.49827053	     -6.22308497	      0.00000000	    -12.49599432	      6.15056415	     -6.05477588	     -1.44270205	     -6.47352629	     45.46769310	     21.00745246	     44.15777185	      0.00000000	      0.00000000	     15.79303076	     -8.73756054	     41.36398333	     43.68806104	     44.15777185	      0.00000000	      0.00000000
      1.96000000	      2.89045439	     -1.14024099	      2.56474628	      0.77420887	      0.92633020	     -0.24549337	     16.95316226	      0.28962410	    -13.43534019	    -24.92188927	      7.23470376	     -7.30133268	      0.00000000	      1.36548476	     -5.26139995	     -3.98171691	    -59.40438955	    -15.00994998	     -6.41693550	      0.00000000	    -12.47858885	      6.30467065	     -5.80732598	     -1.20593366	     -6.87853565	     45.60983970	     21.93133390	     44.21251694	      0.00000000	      0.00000000	     15.44716492	     -8.24874119	     41.45844553	     41.78239041	     44.21251694	      0.00000000	      0.00000000
      1.97000000	      3.05739568	     -1.10413211	      2.54326090	      0.78476519	      0.92751558	     -0.24392653	     15.96939092	      0.45259063	    -13.06925846	    -24.83852103	      8.06330951	     -7.19429280	      0.00000000	      2.86512446	     -5.15552279	     -3.64340506	    -61.82846529	    -13.76769355	     -6.94147846	      0.00000000	    -12.77072182	      6.21418834	     -5.44794299	     -0.74366606	     -6.93335203	     45.57643530	     22.04672661	     44.21582194	      0.00000000	      0.00000000	     14.87536504	     -8.22223149	     41.57953496	     41.57296142	     44.21582194	      0.00000000	      0.00000000
      1.98000000	      3.06206425	     -1.16615620	      2.52974556	      0.79523827	      0.92872060	     -0.24237966	     15.18596137	      0.62442340	    -13.37884124	    -24.73312640	      8.61357803	     -6.96867384	      0.00000000	      4.69289235	     -5.23923043	     -3.31879245	    -64.16097137	    -12.79744220	     -6.63840001	      0.00000000	    -12.84100916	      6.21920498	     -5.19827211	     -0.31247218	     -7.13280162	     45.57897739	     22.35064313	     44.22873226	      0.00000000	      0.00000000	     14.21880221	     -8.11140862	     41.77575082	     40.80272453	     44.22873226	      0.00000000	      0.00000000
      1.99000000	      3.22340445	     -1.01058174	      2.39824153	      0.80576658	      0.93026420	     -0.24082299	     14.14061099	      0.65878968	    -13.24326145	    -24.46581117	      9.23884324	     -6.86120778	      0.00000000	      6.18439759	     -5.07914513	     -3.24739490	    -65.93019328	    -12.32220414	     -6.87524975	      0.00000000	    -13.10880185	      5.95271556	     -4.75424606	      0.10980853	     -7.24234464	     45.55198497	     22.47927325	     44.23191085	      0.00000000	      0.00000000	     13.59075223	     -8.06526000	     41.89057027	     40.46562275	     44.23191085	      0.00000000	      0.00000000
